<svg id="Calque_1" data-name="Calque 1" xmlns="http://www.w3.org/2000/svg" version="1.1" viewBox="0 0 340.2 340.2" width="43" height="43">
    <defs>
        <radialGradient id="Dégradé_sans_nom_12" data-name="Dégradé sans nom 12" cx="173.2" cy="159.6" fx="173.2" fy="159.6" r="180.6" gradientTransform="rotate(.9 -4837.66 108.027) scale(1 .5)" gradientUnits="userSpaceOnUse">
            <stop offset="0" stop-color="#009bd4"/>
            <stop offset=".5" stop-color="#0466aa"/>
            <stop offset=".8" stop-color="#29445d"/>
            <stop offset="1" stop-color="#143651"/>
        </radialGradient>
        <style>
            .cls-1{fill:#7c6d5d}.cls-1,.cls-3,.cls-4,.cls-5{stroke-width:0}.cls-3{fill:#e0d6c4}.cls-4{fill:#fcedd0}.cls-5{fill:#f5e6ca}
        </style>
    </defs>
    <path class="cls-5" d="M317.1 126.7 185.8 13.6c-4.2-3.6-9.3-5.3-14.4-5.1h-1.9c-5.1-.2-10.2 1.5-14.4 5.1L23.9 126.7c-5 4.3-7.9 10.8-7.9 17.6v176.4c0 12.6 9.7 10.3 21.7 10.3h265.7c12 0 21.7 2.2 21.7-10.3V144.3c0-6.8-2.9-13.2-7.9-17.6Z"/>
    <path d="M309.7 134.2c8.4 6.8 8.4 51.2 0 57.9l-111.5 58.2-27.4-22.1-27.4 22.1-100.1-51.5-11.4-6.7c-8.4-6.8-9.6-50 0-57.9L155.8 27.5c8.8-7.1 21.3-7.1 30.1 0l123.8 106.7Z" style="fill:url(#Dégradé_sans_nom_12);stroke-width:0"/>
    <path d="M206.7 168.2c-25.5 0-46.2-20.7-46.2-46.2s6.3-26.8 16.3-35.2c-27.3 2.9-48.6 26-48.6 54.1s24.4 54.4 54.4 54.4 43.6-15 51.2-36c-7.6 5.6-17 8.9-27.2 8.9Z" style="fill:#fcfaf6;stroke-width:0"/>
    <path class="cls-3" d="M176.7 183.7c-2.6 3.5-7.8 4-12.2.6-4.5-3.4-6-8.9-3.5-12.3 2.6-3.5 7.9-3 12.4.4s5.9 7.9 3.3 11.4ZM154.1 165.1c-2.3 1.4-5.2.9-6.6-1.4-1.4-2.3-.6-5.4 1.7-6.8 2.3-1.4 5-.4 6.4 1.9 1.4 2.3.8 4.9-1.5 6.2ZM157.2 103.7c1.2.5 1.7 2.1.9 3.8-.7 1.7-2.3 2.8-3.4 2.3-1.2-.5-1.4-2.2-.7-4 .7-1.7 2-2.6 3.2-2.1ZM186.2 179.6c.7-1.5 2.8-2 5.1-1 2.2 1.1 3.5 3.1 2.8 4.7-.7 1.5-3 1.7-5.2.6s-3.3-2.8-2.6-4.3Z"/>
    <path class="cls-4" d="m197.7 250.4 27 78h72.7c12.6 0 27.6-5.4 27.6-25.9V182.8c0-14.2-16.5-22.1-27.6-13.1l-99.7 80.7ZM143.2 250.4l-27 78H43.5c-12.6 0-27.6-5.4-27.6-25.9V182.8c0-14.2 16.5-22.1 27.6-13.1l99.7 80.7Z"/>
    <path class="cls-1" d="M116.7 328.1H23.1c-10.9 0-1.8-7.6-.2-8.7L134 243.2l8.9 7.2-26.3 77.7ZM224 328.1h93.5c10.9 0 1.8-7.6.2-8.7l-111.1-76.2-8.9 7.2 26.3 77.7Z"/>
    <path class="cls-5" d="M317.4 322.1c-6.5-4.3-140.1-89.8-140.1-89.8-2.1-1.3-4.4-2-6.7-2s-4.7.7-6.7 2c0 0-133.6 85.5-140.1 89.8-5.3 3.5-4.8 6.1 0 6.1h294.1c4.7 0 5.2-2.7 0-6.1Z"/>
</svg>
