<svg id="Calque_1" data-name="Calque 1" xmlns="http://www.w3.org/2000/svg" version="1.1" viewBox="0 0 340.2 340.2" width="128" height="128">
    <defs>
        <radialGradient id="Dégradé_sans_nom_12" data-name="Dégradé sans nom 12" cx="173.3" cy="159" fx="173.3" fy="159" r="188.6" gradientTransform="rotate(.9 -4812.197 107.827) scale(1 .5)" gradientUnits="userSpaceOnUse">
            <stop offset="0" stop-color="#009bd4"/>
            <stop offset=".5" stop-color="#0466aa"/>
            <stop offset=".8" stop-color="#29445d"/>
            <stop offset="1" stop-color="#143651"/>
        </radialGradient>
        <clipPath id="clippath">
            <path d="M316 132.5c8.8 7.1 8.8 53.4 0 60.5l-116.4 60.8-28.6-23.1-28.6 23.1L37.8 200l-11.9-7c-8.8-7.1-10.1-52.3 0-60.5L155.2 20.9c9.2-7.4 22.3-7.4 31.5 0L316 132.4Z" style="fill:none;stroke-width:0"/>
        </clipPath>
        <style>
            .cls-1{fill:#e2f3fa}.cls-1,.cls-11,.cls-12,.cls-13,.cls-17,.cls-18,.cls-19,.cls-2,.cls-3,.cls-4,.cls-5,.cls-8{stroke-width:0}.cls-2{fill:#f3dcec}.cls-3{fill:#f4faff}.cls-4{fill:#b3e0f8}.cls-5{fill-rule:evenodd}.cls-13,.cls-5{fill:#1a374a}.cls-8{fill:#e0d6c4}.cls-11{fill:#fcedd0}.cls-12{fill:#233a7b}.cls-18{opacity:.2}.cls-17{fill:#fff}.cls-18{fill:#0b5272}.cls-19{fill:#e7d6be}
        </style>
    </defs>
    <path class="cls-11" d="M323.7 124.6 186.5 6.5c-4.4-3.7-9.7-5.5-15-5.3h-2c-5.3-.2-10.7 1.6-15 5.3L17.4 124.6c-5.2 4.5-8.3 11.2-8.3 18.3v184.3c0 13.1 10.1 10.8 22.6 10.8h277.6c12.5 0 22.6 2.3 22.6-10.8V142.9c0-7.1-3-13.8-8.3-18.3Z"/>
    <path d="M316 132.5c8.8 7.1 8.8 53.4 0 60.5l-116.4 60.8-28.6-23.1-28.6 23.1L37.8 200l-11.9-7c-8.8-7.1-10.1-52.3 0-60.5L155.2 20.9c9.2-7.4 22.3-7.4 31.5 0L316 132.4Z" style="fill:url(#Dégradé_sans_nom_12);stroke-width:0"/>
    <path d="M188 153.4c-12.5 0-22.7-10.2-22.7-22.7s3.1-13.2 8-17.3c-13.4 1.4-23.9 12.8-23.9 26.6s12 26.8 26.8 26.8 21.5-7.4 25.2-17.7c-3.8 2.7-8.4 4.4-13.4 4.4Z" style="fill:#fcfaf6;stroke-width:0"/>
    <path class="cls-8" d="M173.2 161c-1.3 1.7-3.8 2-6 .3-2.2-1.6-3-4.4-1.7-6.1 1.3-1.7 3.9-1.5 6.1.2 2.2 1.6 2.9 3.9 1.6 5.6ZM162.1 151.9c-1.2.7-2.6.4-3.2-.7-.7-1.2-.3-2.6.9-3.3 1.2-.7 2.5-.2 3.1 1 .7 1.2.4 2.4-.8 3.1ZM163.6 121.6c.6.2.8 1 .5 1.9s-1.1 1.4-1.7 1.1c-.6-.2-.7-1.1-.3-1.9.4-.9 1-1.3 1.6-1ZM177.9 159c.4-.7 1.4-1 2.5-.5s1.7 1.5 1.4 2.3c-.4.7-1.5.8-2.6.3s-1.6-1.4-1.3-2.1Z"/>
    <path class="cls-17" d="m145.7 106.5 2.6-.4-2.6-.4c-1.1-.2-1.9-1-2.1-2.1l-.4-2.6-.4 2.6c-.2 1.1-1 1.9-2.1 2.1l-2.6.4 2.6.4c1.1.2 1.9 1 2.1 2.1l.4 2.6.4-2.6c.2-1.1 1-1.9 2.1-2.1ZM198.3 97.2l2.1-.4-2.1-.4c-.9-.1-1.6-.8-1.7-1.7l-.4-2.2-.4 2.2c-.1.9-.8 1.6-1.7 1.7l-2.1.4 2.1.4c.9.1 1.6.8 1.7 1.7l.4 2.1.4-2.1c.1-.9.8-1.6 1.7-1.7ZM118.4 132l1.9-.3-1.9-.3c-.8-.1-1.4-.7-1.5-1.5l-.3-1.9-.3 1.9c-.1.8-.7 1.4-1.5 1.5l-1.9.3 1.9.3c.8.1 1.4.7 1.5 1.5l.3 1.9.3-1.9c.1-.8.7-1.4 1.5-1.5ZM155.6 80.3l1.4-.2-1.4-.2c-.6 0-1-.5-1.1-1.1l-.2-1.4-.2 1.4c0 .6-.5 1-1.1 1.1l-1.4.2 1.4.2c.6 0 1 .5 1.1 1.1l.2 1.4.2-1.4c0-.6.5-1 1.1-1.1ZM182.3 43l.9-.2-.9-.2c-.4 0-.7-.4-.7-.7l-.2-.9-.2.9c0 .4-.4.7-.7.7l-.9.2.9.2c.4 0 .7.4.7.7l.2.9.2-.9c0-.4.4-.7.7-.7ZM132.2 68.3l.9-.2-.9-.2c-.4 0-.7-.4-.7-.7l-.2-.9-.2.9c0 .4-.4.7-.7.7l-.9.2.9.2c.4 0 .7.4.7.7l.2.9.2-.9c0-.4.4-.7.7-.7ZM223.7 139.6l.9-.2-.9-.2c-.4 0-.7-.4-.7-.7l-.2-.9-.2.9c0 .4-.4.7-.7.7l-.9.2.9.2c.4 0 .7.4.7.7l.2.9.2-.9c0-.4.4-.7.7-.7ZM72 134l.9-.2-.9-.2c-.4 0-.7-.4-.7-.7l-.2-.9-.2.9c0 .4-.4.7-.7.7l-.9.2.9.2c.4 0 .7.4.7.7l.2.9.2-.9c0-.4.4-.7.7-.7ZM98 107.9l1.4-.2-1.4-.2c-.6 0-1-.5-1.1-1.1l-.2-1.4-.2 1.4c0 .6-.5 1-1.1 1.1l-1.4.2 1.4.2c.6 0 1 .5 1.1 1.1l.2 1.4.2-1.4c0-.6.5-1 1.1-1.1ZM230.9 92.5l1.4-.2-1.4-.2c-.6 0-1-.5-1.1-1.1l-.2-1.4-.2 1.4c0 .6-.5 1-1.1 1.1l-1.4.2 1.4.2c.6 0 1 .5 1.1 1.1l.2 1.4.2-1.4c0-.6.5-1 1.1-1.1ZM255.2 129.1l1.4-.2-1.4-.2c-.6 0-1-.5-1.1-1.1l-.2-1.4-.2 1.4c0 .6-.5 1-1.1 1.1l-1.4.2 1.4.2c.6 0 1 .5 1.1 1.1l.2 1.4.2-1.4c0-.6.5-1 1.1-1.1ZM167.2 60.4l1.4-.2-1.4-.2c-.6 0-1-.5-1.1-1.1l-.2-1.4-.2 1.4c0 .6-.5 1-1.1 1.1l-1.4.2 1.4.2c.6 0 1 .5 1.1 1.1l.2 1.4.2-1.4c0-.6.5-1 1.1-1.1Z"/>
    <path class="cls-18" d="M266.8 75.7c-2.3-1.3-6.3-2.6-11.6-1.6-11.3 2-14.9 13.6-14.9 13.6s-2.9-1.7-7.7-.9c-4 .7-8.2 4.2-9.5 8.3-8.2 0-11.5 14.1 4.9 14.1h77.9l-39-33.5Z"/>
    <path style="fill:#74b9e7;stroke-width:0" d="M85.4 181.1h175.4v47.8H85.4z"/>
    <path style="fill:none;stroke:#fff;stroke-linecap:round;stroke-linejoin:round;stroke-width:2.4px" d="m138 223.2 9-15.5"/>
    <path class="cls-18" d="M49.5 97h62.7c12.8 0 16.3-3.9 16.3-10s-8.5-8.1-9.9-8.1c-.9-2.8-5.2-7.3-10.4-7.5-5.2-.2-9.5 1.9-11.9 5.8-2.9-6.6-10.2-7.9-15.5-7.3L49.4 97Zm47.6-10.3c-.2.3-.3.5-.5.8-.1-.3-.3-.5-.4-.8h.9Z"/>
    <path class="cls-1" d="M88.1 90.3H52.3c-5.8 0-9.1-4.1-9.1-11.2s6-16.6 18.3-16.6 17 7.1 18.5 11c5.4-.9 12.7.4 15.7 7.3 2.7-3.9 6.7-6 11.9-5.8 5.2.2 9.2 4.1 10.4 7.5 5.6 0 7.5 1.1 7.5 3.9s-1.7 3.9-9.9 3.9H88Z"/>
    <path class="cls-17" d="M115.7 91H52.3c-6.2 0-9.8-4.3-9.8-11.9s6-17.3 19-17.3 17.4 7.3 19 10.9c5.5-.7 12.2.7 15.4 6.8 2.9-3.6 6.9-5.4 11.8-5.2 5.2.2 9.4 4 10.8 7.5 4.7 0 7.8.9 7.8 4.6s-2.5 4.6-10.6 4.6ZM61.6 63.2C49.4 63.2 44 72.5 44 79.1s3 10.5 8.4 10.5h63.4c8.6 0 9.2-1.3 9.2-3.2s-1.1-3.2-6.8-3.2h-.5l-.2-.5c-1.1-3.3-4.9-6.9-9.7-7.1-4.7-.2-8.6 1.7-11.3 5.5l-.7 1-.5-1.1c-2.8-6.4-9.6-7.8-15-6.9h-.6l-.2-.4c-1.2-3.2-5.5-10.6-17.9-10.6Z"/>
    <path class="cls-3" d="M192.4 185.3h-31.7c-.5 0-.9-.4-.9-.9s.4-.9.9-.9h31.7c.5 0 .9.4.9.9s-.4.9-.9.9ZM172.3 189.9H153c-.3 0-.6-.3-.6-.6s.3-.6.6-.6h19.3c.3 0 .6.3.6.6s-.3.6-.6.6ZM168.9 194h-9.4c-.3 0-.6-.3-.6-.6s.3-.6.6-.6h9.4c.3 0 .6.3.6.6s-.3.6-.6.6ZM177.2 194h-3.7c-.3 0-.6-.3-.6-.6s.3-.6.6-.6h3.7c.3 0 .6.3.6.6s-.3.6-.6.6Z"/>
    <circle class="cls-3" cx="175.1" cy="189.3" r=".6"/>
    <path class="cls-3" d="M157.4 193.2c0 .3-.2.5-.5.5s-.5-.2-.5-.5.2-.5.5-.5.5.2.5.5Z"/>
    <path class="cls-17" d="M155.9 204.6c-6.3-6.2-11.4-7.1-11.4-7.1s.4-5-3.5-8.7c-3.9-3.7-9.2-4.4-9.2-4.4s-1.2-10.8-10.6-18.1c-9.4-7.3-19.2-4.4-19.2-4.4S90.6 144.2 75.7 143c-4.1-.3-7.5 0-10.4.4-5-7-13.2-11.5-22.4-11.5-15.3 0-27.7 12.4-27.7 27.7s12.4 27.7 27.7 27.7 16-3.8 21-9.7l12.8 40 81.6 26.5s7.9-3.7 7.9-17.5-3.9-15.8-10.2-22Z"/>
    <path class="cls-17" d="M158.2 244.8h-.3L76 218.1l-12.5-39.2c-5.4 5.7-12.9 9-20.7 9-15.7 0-28.4-12.7-28.4-28.4s12.7-28.4 28.4-28.4 17.4 4.3 22.8 11.4c3.1-.5 6.5-.6 10.1-.4 14 1.1 24.7 16 26.6 18.8 2.2-.5 10.9-1.9 19.3 4.7s10.4 15.8 10.8 18.1c1.5.3 5.7 1.4 9.1 4.5 3.3 3.1 3.7 7.1 3.7 8.6 1.5.4 6 2.1 11.2 7.2 6.4 6.3 10.4 14.9 10.4 22.5 0 14-7.9 18-8.3 18.1h-.3Zm-81-27.9 80.9 26.3c1.3-.7 7.2-4.8 7.2-16.7s-3.8-15.5-10-21.5c-6.1-5.9-11-6.9-11.1-7h-.6v-.7s.3-4.7-3.3-8.1c-3.7-3.5-8.8-4.2-8.8-4.3h-.5v-.6c0-.1-1.3-10.6-10.3-17.7-9-7-18.5-4.3-18.6-4.3h-.5c0 .1-.3-.3-.3-.3-.1-.2-11.4-17.5-25.8-18.6-3.6-.3-7.1-.1-10.2.4h-.4l-.3-.3c-5.1-7-13.3-11.2-21.9-11.2-14.9 0-27 12.1-27 27s12.1 27 27 27 15.4-3.4 20.5-9.4l.8-1 13.1 40.9Z"/>
    <path class="cls-2" d="M63.2 159.5s27.2-8.3 48.2 20.8c5-.2 19.7 3.3 22.6 15.8 2.9 12.5 4 21.1 4 21.1H68l-4.8-57.8Z"/>
    <path class="cls-17" d="M138 217.8H68c-.3 0-.5-.2-.6-.5l-4.8-57.8c0-.3.1-.5.4-.6.3 0 27.7-8 48.7 20.8h.1c5.5 0 19.8 3.6 22.7 16.3 2.9 12.4 4 21.1 4 21.2 0 .2 0 .3-.1.4s-.3.2-.4.2Zm-69.5-1.1h68.8c-.3-2.2-1.5-10-3.9-20.4-2.8-12.3-17.1-15.5-22-15.4-.1 0-.4 0-.5-.2-19.1-26.4-43.6-21.6-47.2-20.7l4.7 56.8Z"/>
    <path class="cls-4" d="M150 218c0-5.7-2-14.1-11.7-20.4-6.1-4-16.3-4.6-18.6-2.9-13.8-22.3-34-17.9-34-17.9l-6.6 36.7h48.4c-.1-.4 7.1 17.3 6.9 16.9 0 0 15.4 2.8 15.5-12.3Z"/>
    <path class="cls-17" d="M137.4 231.4c-1.3 0-2.3-.1-2.8-.2-.2 0-.4 0-.8-.6h-.1l-.1-.5c-.6-1.1-1.4-3.3-3.1-7.4-1.4-3.3-2.9-7-3.4-8.3H78.2l6.8-38.2h.5c.2-.2 20.5-4.3 34.4 17.5 3.5-1.4 12.9-.5 18.8 3.3 10.1 6.6 12.1 15.1 12.1 21.1 0 4.6-1.5 8.1-4.2 10.4-2.9 2.4-6.7 2.9-9.3 2.9Zm-2.3-1.8c1.5.2 6.9.6 10.5-2.4 2.4-2 3.6-5 3.6-9.2 0-5.6-1.9-13.6-11.3-19.7-5.9-3.9-15.7-4.4-17.7-3l-.7.5-.5-.7c-12.1-19.5-29.3-18-32.6-17.6l-6.3 35.1h47.3c.3 0 .5 0 .8.6h.1l.1.5c.6 1.2 1.6 3.6 3.5 8.2 1.2 3.1 2.6 6.5 3.1 7.6ZM300.2 131.8c-9.4 0-17.7 4.7-22.7 11.9-3.2-.8-7.2-1.2-12.2-.8-14.9 1.2-26.3 18.9-26.3 18.9s-9.8-2.9-19.2 4.4c-9.4 7.3-10.6 18.1-10.6 18.1s-5.3.8-9.2 4.4c-3.9 3.7-3.5 8.7-3.5 8.7s-5.1 1-11.4 7.1c-6.3 6.2-8.8 16.9-8.8 24.6s.5 15.1.5 15.1l87.5-26.8 13.4-42c5 7 13.3 11.6 22.6 11.6 15.3 0 27.7-12.4 27.7-27.7s-12.4-27.7-27.7-27.7Z"/>
    <path class="cls-17" d="M176.1 245.2v-.9s-.5-7.6-.5-15.2 2.4-18.6 9-25.1c5.2-5.1 9.7-6.7 11.2-7.2 0-1.5.4-5.5 3.7-8.6 3.3-3.1 7.6-4.2 9-4.5.4-2.3 2.4-11.5 10.8-18.1 8.5-6.6 17.1-5.2 19.3-4.7 1.9-2.8 12.6-17.7 26.6-18.8 4.3-.3 8.3 0 12 .7 5.3-7.4 13.9-11.8 23-11.8 15.7 0 28.4 12.7 28.4 28.4s-12.7 28.4-28.4 28.4-16.9-4-22.3-10.8l-13.1 41-88.7 27.1Zm58-83.3c-3.6 0-8.9.9-13.9 4.8-9 7.1-10.3 17.6-10.3 17.7v.5h-.6s-5.1.8-8.8 4.3c-3.6 3.4-3.3 8.1-3.2 8.1v.6l-.6.1s-5 1-11.1 7c-6.4 6.2-8.6 16.9-8.6 24.1s.3 12 .4 14.2l86.3-26.4 13.7-42.9.8 1.1c5.1 7.1 13.3 11.3 22 11.3 14.9 0 27-12.1 27-27s-12.1-27-27-27-17.1 4.3-22.1 11.6l-.3.4h-.5c-3.6-1-7.6-1.2-12-.9-14.4 1.1-25.7 18.4-25.8 18.6l-.3.4h-.5c0-.2-1.9-.7-4.6-.7Z"/>
    <path class="cls-2" d="M286.9 161s-26.2-11-50.1 15.9c-5-.7-18.3 2-24 13.5-5.8 11.6-6.1 20.6-6.1 20.6l69.6 7 10.5-57Z"/>
    <path class="cls-17" d="m276.4 218.6-69.6-7c-.3 0-.5-.3-.5-.6 0-.4.4-9.2 6.1-20.8 5.5-11.2 18.3-14.5 24.3-13.8 23.8-26.6 50.2-16 50.5-15.9.2.1.4.4.3.6l-10.5 57c0 .3-.3.5-.6.5Zm-69-8 68.6 6.8 10.4-56c-3.5-1.2-27.4-8.5-49 16-.1.1-.3.2-.5.2-4.2-.6-17.6 1.5-23.4 13.2-4.8 9.8-5.8 17.8-6 19.8Z"/>
    <path class="cls-4" d="M184.8 217s1.5-14.3 18.3-20.8c6.1-2.4 14.3-1.6 17.1.4 16.5-26.5 40.5-21.3 40.5-21.3l7.8 43.7h-57.7c.1-.5-35.6 25.9-24.6 17.4l-1.3-19.4Z"/>
    <path class="cls-17" d="M183.8 238.8c-.2 0-.3-.1-.4-.3-.5-.7-.4-.8 1.9-2.6l-1.2-19c0-.2 1.8-15 18.8-21.5 5.8-2.2 13.5-1.8 17.1 0 16.6-25.9 40.7-21 40.9-21h.5c0 .1 8.1 45.3 8.1 45.3H211c-1.2.8-8.2 5.9-14 10-7.4 5.4-10.6 7.7-12.1 8.6-.2.1-.2.2-.2.2-.4.2-.6.2-.8.2Zm1.8-21.8 1.2 18.1c2.4-1.7 5.9-4.3 9.2-6.6 11.4-8.3 13.9-10.1 14.7-10.3s56.7 0 56.7 0l-7.5-42.1c-3.6-.5-24.4-2.5-39.1 21l-.5.7-.7-.5c-2.4-1.7-10.3-2.6-16.3-.3-15.5 6-17.6 19-17.7 20Z"/>
    <g style="clip-path:url(#clippath)">
        <path class="cls-5" d="M14.4 174.6s8.9-14 13.3-20.2c12-16.7 29.7-17 42.6 1 5.9 8.3 12.2 16.5 19.1 27 5.1 7.6 9.6-3.7 21.8 8.9 8.9 9.2 21.9 37.4 21.9 37.4l6.8-5.2v7.4L27 227.2l-12.5-52.6Z"/>
        <path class="cls-17" d="M140.6 231.8h-.9L26.2 228l-12.7-53.6.2-.3c0-.1 8.9-14.1 13.3-20.3 5.9-8.3 13.5-12.9 21.4-12.9 8.1 0 16.1 4.9 22.5 13.9 1.6 2.3 3.3 4.6 5 6.9 4.5 6.2 9.1 12.5 14.1 20.1 1.9 2.9 3.5 2.7 6.2 2.4 3.5-.4 8.3-1 15.5 6.4 8.1 8.3 19.2 31.7 21.6 36.7l7.3-5.5v9.9Zm-7.8-1.9 6.1.2v-4.9l-6.1 4.7Zm-105.2-3.5 105 3.5-.4-.8c-.1-.3-13-28.2-21.7-37.2-6.6-6.8-10.8-6.3-14.1-5.9-2.7.3-5.3.6-7.7-3.1-5-7.5-9.6-13.9-14.1-20-1.7-2.3-3.4-4.6-5-6.9-6.1-8.5-13.6-13.2-21.2-13.2-7.3 0-14.4 4.3-20 12.2-4 5.6-11.8 17.8-13.1 19.9l12.3 51.7Z"/>
        <path class="cls-5" d="M260 176.2c3.9 1.4 8.1-5.8 11.1-11.1 9.1-15.9 31.8-18.6 43.1-2s15.2 25.4 17.2 30-9.2 34-9.2 34l-143.7 4.5s18.5-1.2 21.3-4.7c19.3-25.5 24.9-32.9 31.4-41.5 8-10.6 18.9-12.8 28.8-9.2Z"/>
        <path class="cls-17" d="M178.5 232.4v-1.6c7-.4 18.8-2 20.6-4.4 9.3-12.3 15.4-20.4 20-26.5 4.9-6.5 8-10.6 11.4-15 7.7-10.1 18.5-13.5 29.7-9.5 3.4 1.2 7.6-6.3 10.2-10.8 4.7-8.2 12.9-13.3 22.1-13.6 9-.4 17.1 3.9 22.3 11.6 4.3 6.3 15.2 25.4 17.3 30.1 1.3 2.9-6.7 27.2-9.2 34.6l-.2.5h-.5l-143.7 4.5Zm72.6-57c-7.4 0-14.2 3.6-19.4 10.5-3.3 4.4-6.5 8.5-11.3 15-4.6 6.1-10.7 14.2-20 26.5-1 1.3-3.6 2.3-6.7 3l128-4c5-14.9 9.7-31.2 9.1-33-2-4.5-13-23.8-17.2-29.9-5-7.3-12.5-11.2-21-10.9-8.6.4-16.4 5.2-20.8 12.8-3.2 5.5-7.4 13.2-12.1 11.5-2.9-1.1-5.8-1.6-8.5-1.6Z"/>
    </g>
    <path class="cls-13" d="M146.4 212s-5.7 9.3-5.7 15.1h11.5c0-5.8-5.7-15.1-5.7-15.1Z"/>
    <path class="cls-12" d="M146.1 216.5h.4v10.6h-.4z"/>
    <path class="cls-12" d="m146.2 220.9-2.4-1.9.4-.1 2.4 1.9-.4.1zM146.5 224.1l-.3-.2 3.5-2.2.4.2-3.6 2.2z"/>
    <path class="cls-13" d="M125.4 195.5s7.8 19.3 7.8 31.4h-15.6c0-12.1 7.8-31.4 7.8-31.4Z"/>
    <path class="cls-12" d="M125.1 205h.6v21.9h-.6z"/>
    <path class="cls-12" d="m125.6 214.1 3.2-3.9-.5-.3-3.2 3.9.5.3zM125.2 220.7l.4-.3-4.8-4.6-.4.3 4.8 4.6z"/>
    <path class="cls-13" d="M138.2 206.8s-6.4 12.3-6.4 20.1h12.8c0-7.7-6.4-20.1-6.4-20.1Z"/>
    <path class="cls-12" d="M137.9 212.9h.5v14h-.5z"/>
    <path class="cls-12" d="m138 218.7-2.7-2.5.5-.2 2.6 2.5-.4.2zM138.4 222.9l-.4-.2 3.9-2.9.4.2-3.9 2.9z"/>
    <path class="cls-13" d="M153.7 211.8s-6.7 9.3-6.7 15.1h13.4c0-5.8-6.7-15.1-6.7-15.1Z"/>
    <path class="cls-12" d="M153.4 216.3h.5v10.6h-.5z"/>
    <path class="cls-12" d="m153.5 220.7-2.8-1.9.5-.1 2.7 1.9-.4.1zM153.9 223.9l-.4-.2 4.1-2.2.4.2-4.1 2.2z"/>
    <path class="cls-13" d="M162.2 221.2s-2.5 3.5-2.5 5.7h4.9c0-2.2-2.5-5.7-2.5-5.7Z"/>
    <path class="cls-12" d="M162.1 222.9h.2v4h-.2z"/>
    <path class="cls-12" d="m162.1 224.6-1-.8h.1l1 .7-.1.1zM162.2 225.8l-.1-.1 1.5-.8h.2l-1.6.9zM167.1 222.9h.3v4h-.3z"/>
    <path class="cls-12" d="m167.1 224.6-1.6-.8h.3l1.5.7-.2.1zM167.3 225.8l-.2-.1 2.3-.8h.3l-2.4.9z"/>
    <path class="cls-13" d="M187.8 212s5.7 9.3 5.7 15.1H182c0-5.8 5.7-15.1 5.7-15.1Z"/>
    <path class="cls-12" d="M187.6 216.5h.4v10.6h-.4z"/>
    <path class="cls-12" d="m188 220.9 2.4-1.9-.4-.1-2.4 1.9.4.1zM187.7 224.1l.3-.2-3.5-2.2-.4.2 3.6 2.2z"/>
    <path class="cls-13" d="M208.8 195.5s-7.8 19.3-7.8 31.4h15.6c0-12.1-7.8-31.4-7.8-31.4Z"/>
    <path class="cls-12" d="M208.5 205h.6v21.9h-.6z"/>
    <path class="cls-12" d="m208.6 214.1-3.3-3.9.6-.3 3.2 3.9-.5.3zM209 220.7l-.4-.3 4.8-4.6.4.3-4.8 4.6z"/>
    <path class="cls-13" d="M196 206.8s6.4 12.3 6.4 20.1h-12.8c0-7.7 6.4-20.1 6.4-20.1Z"/>
    <path class="cls-12" d="M195.8 212.9h.5v14h-.5z"/>
    <path class="cls-12" d="m196.2 218.7 2.7-2.5-.5-.2-2.6 2.5.4.2zM195.8 222.9l.4-.2-3.9-2.9-.4.2 3.9 2.9z"/>
    <path class="cls-13" d="M180.5 211.8s6.7 9.3 6.7 15.1h-13.4c0-5.8 6.7-15.1 6.7-15.1Z"/>
    <path class="cls-12" d="M180.2 216.3h.5v10.6h-.5z"/>
    <path class="cls-12" d="m180.7 220.7 2.8-1.9-.5-.1-2.7 1.9.4.1zM180.3 223.9l.4-.2-4.1-2.2-.4.2 4.1 2.2z"/>
    <path class="cls-13" d="M172 221.2s2.5 3.5 2.5 5.7h-4.9c0-2.2 2.5-5.7 2.5-5.7Z"/>
    <path class="cls-12" d="M171.9 222.9h.2v4h-.2z"/>
    <path class="cls-12" d="m172.1 224.6 1-.8h-.1l-1 .7.1.1zM172 225.8l.1-.1-1.5-.8h-.2l1.6.9z"/>
    <path class="cls-13" d="M167 221.2s3.8 3.5 3.8 5.7h-7.6c0-2.2 3.8-5.7 3.8-5.7Z"/>
    <path class="cls-12" d="M166.8 222.9h.3v4h-.3z"/>
    <path class="cls-12" d="m167.1 224.6 1.6-.8h-.3l-1.5.7.2.1zM166.9 225.8l.2-.1-2.3-.8h-.3l2.4.9z"/>
    <path class="cls-13" d="M19.6 226.8h308.5v45.3H19.6z"/>
    <path d="m178.9 255.1 47.6 70.8h75.9c13.2 0 28.8-5.7 28.8-27V185c0-14.9-17.2-23.1-28.8-13.7l-123.5 83.9Z" style="opacity:.2;fill:#010101;stroke-width:0"/>
    <path class="cls-11" d="m198.9 253.8 28.2 81.5H303c13.2 0 28.8-5.7 28.8-27V183.2c0-14.9-17.2-23.1-28.8-13.7l-104.1 84.3ZM142 253.8l-28.2 81.5H37.9c-13.2 0-28.8-5.7-28.8-27V183.2c0-14.9 17.2-23.1 28.8-13.7L142 253.8Z"/>
    <path class="cls-19" d="M114.3 335H16.6c-11.3 0-1.9-7.9-.2-9.1l116.1-79.6 9.3 7.5-27.5 81.2ZM237 236.6 204.3 263c-1.2 1-2.9.8-3.9-.3-.9-1.2-.7-2.9.5-3.9l32.7-26.4c1.2-1 2.9-.8 3.9.3.9 1.2.7 2.9-.5 3.9ZM249.8 226.2l-2 1.6c-1.2 1-2.9.8-3.9-.3-.9-1.2-.7-2.9.5-3.9l2-1.6c1.2-1 2.9-.8 3.9.3.9 1.2.7 2.9-.5 3.9ZM257.9 219.7l-.3.2c-1.2 1-2.9.8-3.8-.4-.9-1.2-.7-2.9.5-3.8l.3-.2c1.2-1 2.9-.8 3.8.4.9 1.2.7 2.9-.5 3.8Z"/>
    <path class="cls-19" d="M226.4 335h97.7c11.3 0 1.9-7.9.2-9.1l-116.1-79.6-9.3 7.5 27.5 81.2Z"/>
    <path class="cls-1" d="M222.3 102.4c-4.1 0-4.1-5.5 2.6-5.5 1.3-4.1 5.6-7.8 9.7-7.8s7.5 2.6 7.5 2.6 3.5-15 14.9-15.7c8.4-.5 14.2 6.3 14.2 6.3s4.1-3.5 10.8-3.5c5.2-5.2 10.1-8.5 20.7-7.3 10.5 1.2 17.3 13.2 17.3 21.3s-9.1 9.6-11.2 9.6h-86.5Z"/>
    <path class="cls-17" d="M308.8 103.1h-86.5c-2.3 0-3.5-1.5-3.5-3s1.8-3.8 5.6-4c1.6-4.3 6.1-7.8 10.2-7.8s5.8 1.4 7.1 2.2c1-3.4 5.1-14.7 15.3-15.3 7.5-.5 12.8 4.4 14.4 6 1.3-.9 5-3.1 10.4-3.2 4.7-4.6 9.8-8.6 21.1-7.3 11.1 1.3 17.9 13.7 17.9 22s-9.4 10.3-11.9 10.3Zm-83.9-5.6c-3.1 0-4.7 1.3-4.7 2.6s.6 1.6 2.1 1.6h86.5c.1 0 10.5-.4 10.5-8.9s-6.5-19.5-16.6-20.7c-9.8-1.1-14.6 1.6-20.1 7.1l-.2.2h-.3c-6.3 0-10.3 3.3-10.3 3.3l-.5.4-.4-.5s-5.7-6.5-13.7-6c-10.7.7-14.2 15.1-14.2 15.2l-.2 1-.9-.6s-3.3-2.4-7.1-2.4-7.8 3.3-9 7.3l-.2.5h-.5Z"/>
    <path d="M206.3 64.7c1.3 0 1.3-1.8-.8-1.8-.4-1.3-1.4-2.4-3.1-2.5-1.6 0-2.4.8-2.4.8s-.9-5.1-5.5-5.1-4.7 4-4.7 4-.9-2.2-3.4-2.2c-4.7 0-4.7 6.7 0 6.7h20Z" style="fill:#eff8fd;stroke-width:0"/>
    <path d="M324 328.8c-6.8-4.5-146.4-93.8-146.4-93.8-2.1-1.4-4.6-2.1-7-2.1h-.2c-2.4 0-4.9.7-7 2.1 0 0-139.5 89.3-146.4 93.8-5.6 3.6-5 6.4 0 6.4h307.2c4.9 0 5.5-2.8 0-6.4Z" style="fill:#f5e6ca;stroke-width:0"/>
</svg>
